<?xml version="1.0" encoding="UTF-8"?>
<svg xmlns="http://www.w3.org/2000/svg"
    xmlns:xlink="http://www.w3.org/1999/xlink"
    version="1.1" width="640" height="480"
    stroke-width="4px" fill="none" stroke-linecap="round">
  <defs>
    <filter id="blur">
      <feGaussianBlur stdDeviation="4"/>
    </filter>
    <path id="a" d="M 0 40 L 0 16 A 16 16 90 0 1 16 0 L 24 0
        A 16 16 90 0 1 40 16 L 40 40 M 0 24 L 40 24"/>
    <path id="r" d="M 0 40 L 0 0 L 24 0 A 16 12 180 1 1 24 24
        L 0 24 M 24 24 A 16 16 90 0 1 36 40"/>
    <path id="c" d="M 32 0 L 16 0 A 16 16 90 0 0 0 16
        L 0 24 A 16 16 90 0 0 16 40 L 40 40"/>
    <path id="d" d="M 0 40 L 0 0 L 24 0 A 16 16 90 0 1 40 16
        A 24 24 90 0 1 16 40 L 0 40"/>
    <path id="d2" d="M 0 40 L 0 0 L 16 0 A 24 24 90 0 1 40 24
        A 16 16 90 0 1 24 40 L 0 40"/>
    <path id="e" d="M 32 0 L 0 0 L 0 40 L 40 40 M 0 24 L 24 24"/>
    <path id="p" d="M 0 40 L 0 0 L 24 0 A 16 12 180 1 1 24 24 L 0 24"/>
    <path id="t" d="M 0 0 L 40 0 M 20 0 L 20 40"/>
    <path id="arc" d="M 144 89.7 A 192 192 300 1 0 336 89.7"/>
  </defs>
  <rect x="0" y="0" width="640" height="480" fill="#000"/>
  <use xlink:href="#a" x="48" y="16" stroke="#fb4426" filter="url(#blur)"/>
  <use xlink:href="#a" x="48" y="16" stroke="#fb4426"/>
  <use xlink:href="#a" x="48" y="16" stroke="#fff" opacity="0.5"/>
  <use xlink:href="#r" x="102" y="16" stroke="#fb4426" filter="url(#blur)"/>
  <use xlink:href="#r" x="102" y="16" stroke="#fb4426"/>
  <use xlink:href="#r" x="102" y="16" stroke="#fff" opacity="0.5"/>
  <use xlink:href="#c" x="160" y="16" stroke="#fb4426" filter="url(#blur)"/>
  <use xlink:href="#c" x="160" y="16" stroke="#fb4426"/>
  <use xlink:href="#c" x="160" y="16" stroke="#fff" opacity="0.5"/>
  <use xlink:href="#d2" x="272" y="16" stroke="#fb4426" filter="url(#blur)"/>
  <use xlink:href="#d2" x="272" y="16" stroke="#fb4426"/>
  <use xlink:href="#d2" x="272" y="16" stroke="#fff" opacity="0.5"/>
  <use xlink:href="#e" x="328" y="16" stroke="#fb4426" filter="url(#blur)"/>
  <use xlink:href="#e" x="328" y="16" stroke="#fb4426"/>
  <use xlink:href="#e" x="328" y="16" stroke="#fff" opacity="0.5"/>
  <use xlink:href="#p" x="384" y="16" stroke="#fb4426" filter="url(#blur)"/>
  <use xlink:href="#p" x="384" y="16" stroke="#fb4426"/>
  <use xlink:href="#p" x="384" y="16" stroke="#fff" opacity="0.5"/>
  <use xlink:href="#a" x="440" y="16" stroke="#fb4426" filter="url(#blur)"/>
  <use xlink:href="#a" x="440" y="16" stroke="#fb4426"/>
  <use xlink:href="#a" x="440" y="16" stroke="#fff" opacity="0.5"/>
  <use xlink:href="#r" x="496" y="16" stroke="#fb4426" filter="url(#blur)"/>
  <use xlink:href="#r" x="496" y="16" stroke="#fb4426"/>
  <use xlink:href="#r" x="496" y="16" stroke="#fff" opacity="0.5"/>
  <use xlink:href="#t" x="552" y="16" stroke="#fb4426" filter="url(#blur)"/>
  <use xlink:href="#t" x="552" y="16" stroke="#fb4426"/>
  <use xlink:href="#t" x="552" y="16" stroke="#fff" opacity="0.5"/>
  <use xlink:href="#arc" x="80" stroke="#3a94e1" filter="url(#blur)"/>
  <use xlink:href="#arc" x="80" stroke="#3a94e1"/>
  <use xlink:href="#arc" x="80" stroke="#fff" opacity="0.5"/>
</svg>
